%TF.GenerationSoftware,KiCad,Pcbnew,9.0.0*%
%TF.CreationDate,2025-04-07T22:33:31+05:30*%
%TF.ProjectId,pcb,7063622e-6b69-4636-9164-5f7063625858,rev?*%
%TF.SameCoordinates,Original*%
%TF.FileFunction,Soldermask,Top*%
%TF.FilePolarity,Negative*%
%FSLAX46Y46*%
G04 Gerber Fmt 4.6, Leading zero omitted, Abs format (unit mm)*
G04 Created by KiCad (PCBNEW 9.0.0) date 2025-04-07 22:33:31*
%MOMM*%
%LPD*%
G01*
G04 APERTURE LIST*
G04 Aperture macros list*
%AMRoundRect*
0 Rectangle with rounded corners*
0 $1 Rounding radius*
0 $2 $3 $4 $5 $6 $7 $8 $9 X,Y pos of 4 corners*
0 Add a 4 corners polygon primitive as box body*
4,1,4,$2,$3,$4,$5,$6,$7,$8,$9,$2,$3,0*
0 Add four circle primitives for the rounded corners*
1,1,$1+$1,$2,$3*
1,1,$1+$1,$4,$5*
1,1,$1+$1,$6,$7*
1,1,$1+$1,$8,$9*
0 Add four rect primitives between the rounded corners*
20,1,$1+$1,$2,$3,$4,$5,0*
20,1,$1+$1,$4,$5,$6,$7,0*
20,1,$1+$1,$6,$7,$8,$9,0*
20,1,$1+$1,$8,$9,$2,$3,0*%
G04 Aperture macros list end*
%ADD10RoundRect,0.375000X-0.625000X-0.375000X0.625000X-0.375000X0.625000X0.375000X-0.625000X0.375000X0*%
%ADD11RoundRect,0.500000X-0.500000X-1.400000X0.500000X-1.400000X0.500000X1.400000X-0.500000X1.400000X0*%
%ADD12RoundRect,0.250001X-0.799999X-0.799999X0.799999X-0.799999X0.799999X0.799999X-0.799999X0.799999X0*%
%ADD13C,2.100000*%
%ADD14R,1.905000X2.000000*%
%ADD15O,1.905000X2.000000*%
%ADD16R,1.500000X0.900000*%
%ADD17R,0.900000X1.500000*%
%ADD18C,0.600000*%
%ADD19R,4.200000X4.200000*%
%ADD20RoundRect,0.100000X-0.130000X-0.100000X0.130000X-0.100000X0.130000X0.100000X-0.130000X0.100000X0*%
G04 APERTURE END LIST*
D10*
%TO.C,U2*%
X141270000Y-100185000D03*
X141270000Y-102485000D03*
D11*
X147570000Y-102485000D03*
D10*
X141270000Y-104785000D03*
%TD*%
D12*
%TO.C,M2*%
X119290000Y-103710000D03*
D13*
X124370000Y-103710000D03*
%TD*%
D14*
%TO.C,Q2*%
X131180000Y-102210000D03*
D15*
X133720000Y-102210000D03*
X136260000Y-102210000D03*
%TD*%
D16*
%TO.C,U1*%
X132250000Y-77865000D03*
X132250000Y-79135000D03*
X132250000Y-80405000D03*
X132250000Y-81675000D03*
X132250000Y-82945000D03*
X132250000Y-84215000D03*
X132250000Y-85485000D03*
X132250000Y-86755000D03*
X132250000Y-88025000D03*
X132250000Y-89295000D03*
X132250000Y-90565000D03*
X132250000Y-91835000D03*
X132250000Y-93105000D03*
X132250000Y-94375000D03*
D17*
X135290000Y-95625000D03*
X136560000Y-95625000D03*
X137830000Y-95625000D03*
X139100000Y-95625000D03*
X140370000Y-95625000D03*
X141640000Y-95625000D03*
X142910000Y-95625000D03*
X144180000Y-95625000D03*
X145450000Y-95625000D03*
X146720000Y-95625000D03*
D16*
X149750000Y-94375000D03*
X149750000Y-93105000D03*
X149750000Y-91835000D03*
X149750000Y-90565000D03*
X149750000Y-89295000D03*
X149750000Y-88025000D03*
X149750000Y-86755000D03*
X149750000Y-85485000D03*
X149750000Y-84215000D03*
X149750000Y-82945000D03*
X149750000Y-81675000D03*
X149750000Y-80405000D03*
X149750000Y-79135000D03*
X149750000Y-77865000D03*
D18*
X138795000Y-84442500D03*
X138795000Y-85967500D03*
X139557500Y-83680000D03*
X139557500Y-85205000D03*
X139557500Y-86730000D03*
X140320000Y-84442500D03*
D19*
X140320000Y-85205000D03*
D18*
X140320000Y-85967500D03*
X141082500Y-83680000D03*
X141082500Y-85205000D03*
X141082500Y-86730000D03*
X141845000Y-84442500D03*
X141845000Y-85967500D03*
%TD*%
D20*
%TO.C,R1*%
X140400000Y-107480000D03*
X141040000Y-107480000D03*
%TD*%
M02*
