M48
; DRILL file {KiCad 9.0.0} date 2025-04-07T22:33:40+0530
; FORMAT={-:-/ absolute / metric / decimal}
; #@! TF.CreationDate,2025-04-07T22:33:40+05:30
; #@! TF.GenerationSoftware,Kicad,Pcbnew,9.0.0
; #@! TF.FileFunction,Plated,1,2,PTH
FMAT,2
METRIC
; #@! TA.AperFunction,Plated,PTH,ComponentDrill
T1C0.200
; #@! TA.AperFunction,Plated,PTH,ViaDrill
T2C0.300
; #@! TA.AperFunction,Plated,PTH,ComponentDrill
T3C1.100
%
G90
G05
T1
X138.795Y-84.442
X138.795Y-85.968
X139.558Y-83.68
X139.558Y-85.205
X139.558Y-86.73
X140.32Y-84.442
X140.32Y-85.968
X141.082Y-83.68
X141.082Y-85.205
X141.082Y-86.73
X141.845Y-84.442
X141.845Y-85.968
T2
X129.5Y-107.5
X135.0Y-88.0
X136.0Y-105.5
X138.0Y-103.5
X138.0Y-105.0
X143.5Y-101.5
T3
X119.29Y-103.71
X124.37Y-103.71
X131.18Y-102.21
X133.72Y-102.21
X136.26Y-102.21
M30
