%TF.GenerationSoftware,KiCad,Pcbnew,9.0.0*%
%TF.CreationDate,2025-04-07T22:33:31+05:30*%
%TF.ProjectId,pcb,7063622e-6b69-4636-9164-5f7063625858,rev?*%
%TF.SameCoordinates,Original*%
%TF.FileFunction,Legend,Top*%
%TF.FilePolarity,Positive*%
%FSLAX46Y46*%
G04 Gerber Fmt 4.6, Leading zero omitted, Abs format (unit mm)*
G04 Created by KiCad (PCBNEW 9.0.0) date 2025-04-07 22:33:31*
%MOMM*%
%LPD*%
G01*
G04 APERTURE LIST*
%ADD10C,0.150000*%
%ADD11C,0.120000*%
G04 APERTURE END LIST*
D10*
X143658095Y-97439819D02*
X143658095Y-98249342D01*
X143658095Y-98249342D02*
X143705714Y-98344580D01*
X143705714Y-98344580D02*
X143753333Y-98392200D01*
X143753333Y-98392200D02*
X143848571Y-98439819D01*
X143848571Y-98439819D02*
X144039047Y-98439819D01*
X144039047Y-98439819D02*
X144134285Y-98392200D01*
X144134285Y-98392200D02*
X144181904Y-98344580D01*
X144181904Y-98344580D02*
X144229523Y-98249342D01*
X144229523Y-98249342D02*
X144229523Y-97439819D01*
X144658095Y-97535057D02*
X144705714Y-97487438D01*
X144705714Y-97487438D02*
X144800952Y-97439819D01*
X144800952Y-97439819D02*
X145039047Y-97439819D01*
X145039047Y-97439819D02*
X145134285Y-97487438D01*
X145134285Y-97487438D02*
X145181904Y-97535057D01*
X145181904Y-97535057D02*
X145229523Y-97630295D01*
X145229523Y-97630295D02*
X145229523Y-97725533D01*
X145229523Y-97725533D02*
X145181904Y-97868390D01*
X145181904Y-97868390D02*
X144610476Y-98439819D01*
X144610476Y-98439819D02*
X145229523Y-98439819D01*
X121020476Y-98644819D02*
X121020476Y-97644819D01*
X121020476Y-97644819D02*
X121353809Y-98359104D01*
X121353809Y-98359104D02*
X121687142Y-97644819D01*
X121687142Y-97644819D02*
X121687142Y-98644819D01*
X122115714Y-97740057D02*
X122163333Y-97692438D01*
X122163333Y-97692438D02*
X122258571Y-97644819D01*
X122258571Y-97644819D02*
X122496666Y-97644819D01*
X122496666Y-97644819D02*
X122591904Y-97692438D01*
X122591904Y-97692438D02*
X122639523Y-97740057D01*
X122639523Y-97740057D02*
X122687142Y-97835295D01*
X122687142Y-97835295D02*
X122687142Y-97930533D01*
X122687142Y-97930533D02*
X122639523Y-98073390D01*
X122639523Y-98073390D02*
X122068095Y-98644819D01*
X122068095Y-98644819D02*
X122687142Y-98644819D01*
X133624761Y-98490057D02*
X133529523Y-98442438D01*
X133529523Y-98442438D02*
X133434285Y-98347200D01*
X133434285Y-98347200D02*
X133291428Y-98204342D01*
X133291428Y-98204342D02*
X133196190Y-98156723D01*
X133196190Y-98156723D02*
X133100952Y-98156723D01*
X133148571Y-98394819D02*
X133053333Y-98347200D01*
X133053333Y-98347200D02*
X132958095Y-98251961D01*
X132958095Y-98251961D02*
X132910476Y-98061485D01*
X132910476Y-98061485D02*
X132910476Y-97728152D01*
X132910476Y-97728152D02*
X132958095Y-97537676D01*
X132958095Y-97537676D02*
X133053333Y-97442438D01*
X133053333Y-97442438D02*
X133148571Y-97394819D01*
X133148571Y-97394819D02*
X133339047Y-97394819D01*
X133339047Y-97394819D02*
X133434285Y-97442438D01*
X133434285Y-97442438D02*
X133529523Y-97537676D01*
X133529523Y-97537676D02*
X133577142Y-97728152D01*
X133577142Y-97728152D02*
X133577142Y-98061485D01*
X133577142Y-98061485D02*
X133529523Y-98251961D01*
X133529523Y-98251961D02*
X133434285Y-98347200D01*
X133434285Y-98347200D02*
X133339047Y-98394819D01*
X133339047Y-98394819D02*
X133148571Y-98394819D01*
X133958095Y-97490057D02*
X134005714Y-97442438D01*
X134005714Y-97442438D02*
X134100952Y-97394819D01*
X134100952Y-97394819D02*
X134339047Y-97394819D01*
X134339047Y-97394819D02*
X134434285Y-97442438D01*
X134434285Y-97442438D02*
X134481904Y-97490057D01*
X134481904Y-97490057D02*
X134529523Y-97585295D01*
X134529523Y-97585295D02*
X134529523Y-97680533D01*
X134529523Y-97680533D02*
X134481904Y-97823390D01*
X134481904Y-97823390D02*
X133910476Y-98394819D01*
X133910476Y-98394819D02*
X134529523Y-98394819D01*
X129844819Y-95306904D02*
X130654342Y-95306904D01*
X130654342Y-95306904D02*
X130749580Y-95259285D01*
X130749580Y-95259285D02*
X130797200Y-95211666D01*
X130797200Y-95211666D02*
X130844819Y-95116428D01*
X130844819Y-95116428D02*
X130844819Y-94925952D01*
X130844819Y-94925952D02*
X130797200Y-94830714D01*
X130797200Y-94830714D02*
X130749580Y-94783095D01*
X130749580Y-94783095D02*
X130654342Y-94735476D01*
X130654342Y-94735476D02*
X129844819Y-94735476D01*
X130844819Y-93735476D02*
X130844819Y-94306904D01*
X130844819Y-94021190D02*
X129844819Y-94021190D01*
X129844819Y-94021190D02*
X129987676Y-94116428D01*
X129987676Y-94116428D02*
X130082914Y-94211666D01*
X130082914Y-94211666D02*
X130130533Y-94306904D01*
X143333333Y-108454819D02*
X143000000Y-107978628D01*
X142761905Y-108454819D02*
X142761905Y-107454819D01*
X142761905Y-107454819D02*
X143142857Y-107454819D01*
X143142857Y-107454819D02*
X143238095Y-107502438D01*
X143238095Y-107502438D02*
X143285714Y-107550057D01*
X143285714Y-107550057D02*
X143333333Y-107645295D01*
X143333333Y-107645295D02*
X143333333Y-107788152D01*
X143333333Y-107788152D02*
X143285714Y-107883390D01*
X143285714Y-107883390D02*
X143238095Y-107931009D01*
X143238095Y-107931009D02*
X143142857Y-107978628D01*
X143142857Y-107978628D02*
X142761905Y-107978628D01*
X144285714Y-108454819D02*
X143714286Y-108454819D01*
X144000000Y-108454819D02*
X144000000Y-107454819D01*
X144000000Y-107454819D02*
X143904762Y-107597676D01*
X143904762Y-107597676D02*
X143809524Y-107692914D01*
X143809524Y-107692914D02*
X143714286Y-107740533D01*
D11*
%TO.C,U2*%
X142570000Y-99075000D02*
X146330000Y-99075000D01*
X142570000Y-105895000D02*
X146330000Y-105895000D01*
X146330000Y-99075000D02*
X146330000Y-100335000D01*
X146330000Y-105895000D02*
X146330000Y-104635000D01*
X141290000Y-99175000D02*
X141050000Y-98845000D01*
X141530000Y-98845000D01*
X141290000Y-99175000D01*
G36*
X141290000Y-99175000D02*
G01*
X141050000Y-98845000D01*
X141530000Y-98845000D01*
X141290000Y-99175000D01*
G37*
%TO.C,M2*%
X116630000Y-99190000D02*
X116630000Y-107880000D01*
X116630000Y-99190000D02*
X127030000Y-99190000D01*
X116630000Y-101160000D02*
X127030000Y-101160000D01*
X116630000Y-106160000D02*
X127030000Y-106160000D01*
X116630000Y-107260000D02*
X127030000Y-107260000D01*
X116630000Y-107880000D02*
X118990000Y-107880000D01*
X118040000Y-99310000D02*
X118040000Y-100310000D01*
X118040000Y-99310000D02*
X120540000Y-99310000D01*
X118040000Y-100310000D02*
X120540000Y-100310000D01*
X119590000Y-107880000D02*
X127030000Y-107880000D01*
X120540000Y-99310000D02*
X120540000Y-100310000D01*
X123120000Y-99310000D02*
X123120000Y-100310000D01*
X123120000Y-99310000D02*
X125620000Y-99310000D01*
X123120000Y-100310000D02*
X125620000Y-100310000D01*
X123194000Y-104689000D02*
X123149000Y-104734000D01*
X123391000Y-104885000D02*
X123345000Y-104931000D01*
X125395000Y-102489000D02*
X125349000Y-102534000D01*
X125591000Y-102686000D02*
X125546000Y-102731000D01*
X125620000Y-99310000D02*
X125620000Y-100310000D01*
X127030000Y-99190000D02*
X127030000Y-107880000D01*
X117760000Y-104211000D02*
G75*
G02*
X117760118Y-103208641I1530000J501000D01*
G01*
X118789000Y-102180000D02*
G75*
G02*
X119791359Y-102180118I501000J-1530000D01*
G01*
X119791000Y-105240000D02*
G75*
G02*
X118788641Y-105239883I-501001J1530010D01*
G01*
X120820000Y-103209000D02*
G75*
G02*
X120819883Y-104211359I-1530010J-501001D01*
G01*
X125980000Y-103710000D02*
G75*
G02*
X122760000Y-103710000I-1610000J0D01*
G01*
X122760000Y-103710000D02*
G75*
G02*
X125980000Y-103710000I1610000J0D01*
G01*
X119730000Y-108490000D02*
X118850000Y-108490000D01*
X119290000Y-107880000D01*
X119730000Y-108490000D01*
G36*
X119730000Y-108490000D02*
G01*
X118850000Y-108490000D01*
X119290000Y-107880000D01*
X119730000Y-108490000D01*
G37*
%TO.C,Q2*%
X128600000Y-98940000D02*
X128600000Y-103581000D01*
X128600000Y-98940000D02*
X138840000Y-98940000D01*
X128600000Y-100450000D02*
X138840000Y-100450000D01*
X128600000Y-103581000D02*
X138840000Y-103581000D01*
X131870000Y-98940000D02*
X131870000Y-100450000D01*
X135571000Y-98940000D02*
X135571000Y-100450000D01*
X138840000Y-98940000D02*
X138840000Y-103581000D01*
%TO.C,U1*%
X131880000Y-70255000D02*
X131880000Y-76415000D01*
X131880000Y-70255000D02*
X150120000Y-70255000D01*
X131880000Y-95215000D02*
X131880000Y-95995000D01*
X131880000Y-95995000D02*
X132880000Y-95995000D01*
X150120000Y-70255000D02*
X150120000Y-76670000D01*
X150120000Y-95215000D02*
X150120000Y-95995000D01*
X150120000Y-95995000D02*
X149120000Y-95995000D01*
X131875000Y-77140000D02*
X131375000Y-77140000D01*
X131875000Y-76640000D01*
X131875000Y-77140000D01*
G36*
X131875000Y-77140000D02*
G01*
X131375000Y-77140000D01*
X131875000Y-76640000D01*
X131875000Y-77140000D01*
G37*
%TD*%
M02*
