%TF.GenerationSoftware,KiCad,Pcbnew,9.0.0*%
%TF.CreationDate,2025-04-07T22:33:31+05:30*%
%TF.ProjectId,pcb,7063622e-6b69-4636-9164-5f7063625858,rev?*%
%TF.SameCoordinates,Original*%
%TF.FileFunction,Copper,L1,Top*%
%TF.FilePolarity,Positive*%
%FSLAX46Y46*%
G04 Gerber Fmt 4.6, Leading zero omitted, Abs format (unit mm)*
G04 Created by KiCad (PCBNEW 9.0.0) date 2025-04-07 22:33:31*
%MOMM*%
%LPD*%
G01*
G04 APERTURE LIST*
G04 Aperture macros list*
%AMRoundRect*
0 Rectangle with rounded corners*
0 $1 Rounding radius*
0 $2 $3 $4 $5 $6 $7 $8 $9 X,Y pos of 4 corners*
0 Add a 4 corners polygon primitive as box body*
4,1,4,$2,$3,$4,$5,$6,$7,$8,$9,$2,$3,0*
0 Add four circle primitives for the rounded corners*
1,1,$1+$1,$2,$3*
1,1,$1+$1,$4,$5*
1,1,$1+$1,$6,$7*
1,1,$1+$1,$8,$9*
0 Add four rect primitives between the rounded corners*
20,1,$1+$1,$2,$3,$4,$5,0*
20,1,$1+$1,$4,$5,$6,$7,0*
20,1,$1+$1,$6,$7,$8,$9,0*
20,1,$1+$1,$8,$9,$2,$3,0*%
G04 Aperture macros list end*
%TA.AperFunction,SMDPad,CuDef*%
%ADD10RoundRect,0.375000X-0.625000X-0.375000X0.625000X-0.375000X0.625000X0.375000X-0.625000X0.375000X0*%
%TD*%
%TA.AperFunction,SMDPad,CuDef*%
%ADD11RoundRect,0.500000X-0.500000X-1.400000X0.500000X-1.400000X0.500000X1.400000X-0.500000X1.400000X0*%
%TD*%
%TA.AperFunction,ComponentPad*%
%ADD12RoundRect,0.250001X-0.799999X-0.799999X0.799999X-0.799999X0.799999X0.799999X-0.799999X0.799999X0*%
%TD*%
%TA.AperFunction,ComponentPad*%
%ADD13C,2.100000*%
%TD*%
%TA.AperFunction,ComponentPad*%
%ADD14R,1.905000X2.000000*%
%TD*%
%TA.AperFunction,ComponentPad*%
%ADD15O,1.905000X2.000000*%
%TD*%
%TA.AperFunction,SMDPad,CuDef*%
%ADD16R,1.500000X0.900000*%
%TD*%
%TA.AperFunction,SMDPad,CuDef*%
%ADD17R,0.900000X1.500000*%
%TD*%
%TA.AperFunction,SMDPad,CuDef*%
%ADD18R,1.050000X1.050000*%
%TD*%
%TA.AperFunction,HeatsinkPad*%
%ADD19C,0.600000*%
%TD*%
%TA.AperFunction,HeatsinkPad*%
%ADD20R,4.200000X4.200000*%
%TD*%
%TA.AperFunction,SMDPad,CuDef*%
%ADD21RoundRect,0.100000X-0.130000X-0.100000X0.130000X-0.100000X0.130000X0.100000X-0.130000X0.100000X0*%
%TD*%
%TA.AperFunction,ViaPad*%
%ADD22C,0.600000*%
%TD*%
%TA.AperFunction,Conductor*%
%ADD23C,0.200000*%
%TD*%
G04 APERTURE END LIST*
D10*
%TO.P,U2,1,ADJ*%
%TO.N,/gnd*%
X141270000Y-100185000D03*
%TO.P,U2,2,VO*%
%TO.N,+12V*%
X141270000Y-102485000D03*
D11*
X147570000Y-102485000D03*
D10*
%TO.P,U2,3,VI*%
X141270000Y-104785000D03*
%TD*%
D12*
%TO.P,M2,1,+*%
%TO.N,+12V*%
X119290000Y-103710000D03*
D13*
%TO.P,M2,2,-*%
%TO.N,Net-(M2--)*%
X124370000Y-103710000D03*
%TD*%
D14*
%TO.P,Q2,1,G*%
%TO.N,Net-(Q2-G)*%
X131180000Y-102210000D03*
D15*
%TO.P,Q2,2,D*%
%TO.N,Net-(M2--)*%
X133720000Y-102210000D03*
%TO.P,Q2,3,S*%
%TO.N,/gnd*%
X136260000Y-102210000D03*
%TD*%
D16*
%TO.P,U1,1,GND*%
%TO.N,GND*%
X132250000Y-77865000D03*
%TO.P,U1,2,VDD*%
%TO.N,+12V*%
X132250000Y-79135000D03*
%TO.P,U1,3,EN*%
%TO.N,unconnected-(U1-EN-Pad3)*%
X132250000Y-80405000D03*
%TO.P,U1,4,SENSOR_VP*%
%TO.N,unconnected-(U1-SENSOR_VP-Pad4)*%
X132250000Y-81675000D03*
%TO.P,U1,5,SENSOR_VN*%
%TO.N,unconnected-(U1-SENSOR_VN-Pad5)*%
X132250000Y-82945000D03*
%TO.P,U1,6,IO34*%
%TO.N,unconnected-(U1-IO34-Pad6)*%
X132250000Y-84215000D03*
%TO.P,U1,7,IO35*%
%TO.N,unconnected-(U1-IO35-Pad7)*%
X132250000Y-85485000D03*
%TO.P,U1,8,IO32*%
%TO.N,unconnected-(U1-IO32-Pad8)*%
X132250000Y-86755000D03*
%TO.P,U1,9,IO33*%
%TO.N,unconnected-(U1-IO33-Pad9)*%
X132250000Y-88025000D03*
%TO.P,U1,10,IO25*%
%TO.N,Net-(U1-IO25)*%
X132250000Y-89295000D03*
%TO.P,U1,11,IO26*%
%TO.N,unconnected-(U1-IO26-Pad11)*%
X132250000Y-90565000D03*
%TO.P,U1,12,IO27*%
%TO.N,unconnected-(U1-IO27-Pad12)*%
X132250000Y-91835000D03*
%TO.P,U1,13,IO14*%
%TO.N,unconnected-(U1-IO14-Pad13)*%
X132250000Y-93105000D03*
%TO.P,U1,14,IO12*%
%TO.N,unconnected-(U1-IO12-Pad14)*%
X132250000Y-94375000D03*
D17*
%TO.P,U1,15,GND*%
%TO.N,GND*%
X135290000Y-95625000D03*
%TO.P,U1,16,IO13*%
%TO.N,unconnected-(U1-IO13-Pad16)*%
X136560000Y-95625000D03*
%TO.P,U1,17,SHD/SD2*%
%TO.N,unconnected-(U1-SHD{slash}SD2-Pad17)*%
X137830000Y-95625000D03*
%TO.P,U1,18,SWP/SD3*%
%TO.N,unconnected-(U1-SWP{slash}SD3-Pad18)*%
X139100000Y-95625000D03*
%TO.P,U1,19,SCS/CMD*%
%TO.N,unconnected-(U1-SCS{slash}CMD-Pad19)*%
X140370000Y-95625000D03*
%TO.P,U1,20,SCK/CLK*%
%TO.N,unconnected-(U1-SCK{slash}CLK-Pad20)*%
X141640000Y-95625000D03*
%TO.P,U1,21,SDO/SD0*%
%TO.N,unconnected-(U1-SDO{slash}SD0-Pad21)*%
X142910000Y-95625000D03*
%TO.P,U1,22,SDI/SD1*%
%TO.N,unconnected-(U1-SDI{slash}SD1-Pad22)*%
X144180000Y-95625000D03*
%TO.P,U1,23,IO15*%
%TO.N,unconnected-(U1-IO15-Pad23)*%
X145450000Y-95625000D03*
%TO.P,U1,24,IO2*%
%TO.N,unconnected-(U1-IO2-Pad24)*%
X146720000Y-95625000D03*
D16*
%TO.P,U1,25,IO0*%
%TO.N,unconnected-(U1-IO0-Pad25)*%
X149750000Y-94375000D03*
%TO.P,U1,26,IO4*%
%TO.N,unconnected-(U1-IO4-Pad26)*%
X149750000Y-93105000D03*
%TO.P,U1,27,IO16*%
%TO.N,unconnected-(U1-IO16-Pad27)*%
X149750000Y-91835000D03*
%TO.P,U1,28,IO17*%
%TO.N,unconnected-(U1-IO17-Pad28)*%
X149750000Y-90565000D03*
%TO.P,U1,29,IO5*%
%TO.N,unconnected-(U1-IO5-Pad29)*%
X149750000Y-89295000D03*
%TO.P,U1,30,IO18*%
%TO.N,unconnected-(U1-IO18-Pad30)*%
X149750000Y-88025000D03*
%TO.P,U1,31,IO19*%
%TO.N,unconnected-(U1-IO19-Pad31)*%
X149750000Y-86755000D03*
%TO.P,U1,32,NC*%
%TO.N,unconnected-(U1-NC-Pad32)*%
X149750000Y-85485000D03*
%TO.P,U1,33,IO21*%
%TO.N,unconnected-(U1-IO21-Pad33)*%
X149750000Y-84215000D03*
%TO.P,U1,34,RXD0/IO3*%
%TO.N,unconnected-(U1-RXD0{slash}IO3-Pad34)*%
X149750000Y-82945000D03*
%TO.P,U1,35,TXD0/IO1*%
%TO.N,unconnected-(U1-TXD0{slash}IO1-Pad35)*%
X149750000Y-81675000D03*
%TO.P,U1,36,IO22*%
%TO.N,unconnected-(U1-IO22-Pad36)*%
X149750000Y-80405000D03*
%TO.P,U1,37,IO23*%
%TO.N,unconnected-(U1-IO23-Pad37)*%
X149750000Y-79135000D03*
%TO.P,U1,38,GND*%
%TO.N,GND*%
X149750000Y-77865000D03*
D18*
%TO.P,U1,39,GND*%
X138795000Y-83680000D03*
D19*
X138795000Y-84442500D03*
D18*
X138795000Y-85205000D03*
D19*
X138795000Y-85967500D03*
D18*
X138795000Y-86730000D03*
D19*
X139557500Y-83680000D03*
X139557500Y-85205000D03*
X139557500Y-86730000D03*
D18*
X140320000Y-83680000D03*
D19*
X140320000Y-84442500D03*
D18*
X140320000Y-85205000D03*
D20*
X140320000Y-85205000D03*
D19*
X140320000Y-85967500D03*
D18*
X140320000Y-86730000D03*
D19*
X141082500Y-83680000D03*
X141082500Y-85205000D03*
X141082500Y-86730000D03*
D18*
X141845000Y-83680000D03*
D19*
X141845000Y-84442500D03*
D18*
X141845000Y-85205000D03*
D19*
X141845000Y-85967500D03*
D18*
X141845000Y-86730000D03*
%TD*%
D21*
%TO.P,R1,1*%
%TO.N,Net-(U1-IO25)*%
X140400000Y-107480000D03*
%TO.P,R1,2*%
%TO.N,Net-(Q2-G)*%
X141040000Y-107480000D03*
%TD*%
D22*
%TO.N,Net-(M2--)*%
X129500000Y-107500000D03*
X136000000Y-105500000D03*
%TO.N,/gnd*%
X138000000Y-105000000D03*
X143500000Y-101500000D03*
%TO.N,Net-(U1-IO25)*%
X138000000Y-103500000D03*
X135000000Y-88000000D03*
%TD*%
D23*
%TO.N,Net-(M2--)*%
X124370000Y-103710000D02*
X128160000Y-107500000D01*
X136000000Y-105500000D02*
X136000000Y-104490000D01*
X128160000Y-107500000D02*
X129500000Y-107500000D01*
X136000000Y-104490000D02*
X133720000Y-102210000D01*
%TO.N,+12V*%
X138463000Y-102485000D02*
X141270000Y-102485000D01*
X132230000Y-79000000D02*
X138045000Y-84815000D01*
X137919000Y-87081000D02*
X137919000Y-84815000D01*
X133789000Y-97811000D02*
X133789000Y-91211000D01*
X133789000Y-97811000D02*
X138463000Y-102485000D01*
X141270000Y-102485000D02*
X147570000Y-102485000D01*
X133789000Y-91211000D02*
X137919000Y-87081000D01*
X119290000Y-103710000D02*
X125189000Y-97811000D01*
X125189000Y-97811000D02*
X133789000Y-97811000D01*
X141270000Y-102485000D02*
X141270000Y-104785000D01*
%TO.N,Net-(Q2-G)*%
X141040000Y-107679999D02*
X141040000Y-107480000D01*
X140738999Y-107981000D02*
X141040000Y-107679999D01*
X136951000Y-107981000D02*
X140738999Y-107981000D01*
X131180000Y-102210000D02*
X136951000Y-107981000D01*
%TO.N,/gnd*%
X136260000Y-103260000D02*
X138000000Y-105000000D01*
X143500000Y-101500000D02*
X142185000Y-100185000D01*
X136260000Y-102210000D02*
X136260000Y-103260000D01*
X142185000Y-100185000D02*
X141270000Y-100185000D01*
%TO.N,Net-(U1-IO25)*%
X140400000Y-105900000D02*
X138000000Y-103500000D01*
X135000000Y-88000000D02*
X133705000Y-89295000D01*
X140400000Y-107480000D02*
X140400000Y-105900000D01*
X133705000Y-89295000D02*
X132250000Y-89295000D01*
%TO.N,GND*%
X138795000Y-87115000D02*
X138795000Y-86730000D01*
X134540000Y-96375000D02*
X134540000Y-91370000D01*
X148045000Y-77865000D02*
X149750000Y-77865000D01*
X134540000Y-91370000D02*
X138795000Y-87115000D01*
X132250000Y-77865000D02*
X132980000Y-77865000D01*
X135290000Y-95625000D02*
X134540000Y-96375000D01*
X132980000Y-77865000D02*
X138795000Y-83680000D01*
X141095000Y-84815000D02*
X148045000Y-77865000D01*
%TD*%
M02*
