%TF.GenerationSoftware,KiCad,Pcbnew,9.0.0*%
%TF.CreationDate,2025-04-07T22:33:31+05:30*%
%TF.ProjectId,pcb,7063622e-6b69-4636-9164-5f7063625858,rev?*%
%TF.SameCoordinates,Original*%
%TF.FileFunction,Copper,L2,Bot*%
%TF.FilePolarity,Positive*%
%FSLAX46Y46*%
G04 Gerber Fmt 4.6, Leading zero omitted, Abs format (unit mm)*
G04 Created by KiCad (PCBNEW 9.0.0) date 2025-04-07 22:33:31*
%MOMM*%
%LPD*%
G01*
G04 APERTURE LIST*
G04 Aperture macros list*
%AMRoundRect*
0 Rectangle with rounded corners*
0 $1 Rounding radius*
0 $2 $3 $4 $5 $6 $7 $8 $9 X,Y pos of 4 corners*
0 Add a 4 corners polygon primitive as box body*
4,1,4,$2,$3,$4,$5,$6,$7,$8,$9,$2,$3,0*
0 Add four circle primitives for the rounded corners*
1,1,$1+$1,$2,$3*
1,1,$1+$1,$4,$5*
1,1,$1+$1,$6,$7*
1,1,$1+$1,$8,$9*
0 Add four rect primitives between the rounded corners*
20,1,$1+$1,$2,$3,$4,$5,0*
20,1,$1+$1,$4,$5,$6,$7,0*
20,1,$1+$1,$6,$7,$8,$9,0*
20,1,$1+$1,$8,$9,$2,$3,0*%
G04 Aperture macros list end*
%TA.AperFunction,ComponentPad*%
%ADD10RoundRect,0.250001X-0.799999X-0.799999X0.799999X-0.799999X0.799999X0.799999X-0.799999X0.799999X0*%
%TD*%
%TA.AperFunction,ComponentPad*%
%ADD11C,2.100000*%
%TD*%
%TA.AperFunction,ComponentPad*%
%ADD12R,1.905000X2.000000*%
%TD*%
%TA.AperFunction,ComponentPad*%
%ADD13O,1.905000X2.000000*%
%TD*%
%TA.AperFunction,HeatsinkPad*%
%ADD14C,0.600000*%
%TD*%
%TA.AperFunction,ViaPad*%
%ADD15C,0.600000*%
%TD*%
%TA.AperFunction,Conductor*%
%ADD16C,0.200000*%
%TD*%
G04 APERTURE END LIST*
D10*
%TO.P,M2,1,+*%
%TO.N,+12V*%
X119290000Y-103710000D03*
D11*
%TO.P,M2,2,-*%
%TO.N,Net-(M2--)*%
X124370000Y-103710000D03*
%TD*%
D12*
%TO.P,Q2,1,G*%
%TO.N,Net-(Q2-G)*%
X131180000Y-102210000D03*
D13*
%TO.P,Q2,2,D*%
%TO.N,Net-(M2--)*%
X133720000Y-102210000D03*
%TO.P,Q2,3,S*%
%TO.N,/gnd*%
X136260000Y-102210000D03*
%TD*%
D14*
%TO.P,U1,39,GND*%
%TO.N,GND*%
X138795000Y-84442500D03*
X138795000Y-85967500D03*
X139557500Y-83680000D03*
X139557500Y-85205000D03*
X139557500Y-86730000D03*
X140320000Y-84442500D03*
X140320000Y-85967500D03*
X141082500Y-83680000D03*
X141082500Y-85205000D03*
X141082500Y-86730000D03*
X141845000Y-84442500D03*
X141845000Y-85967500D03*
%TD*%
D15*
%TO.N,Net-(M2--)*%
X129500000Y-107500000D03*
X136000000Y-105500000D03*
%TO.N,/gnd*%
X138000000Y-105000000D03*
X143500000Y-101500000D03*
%TO.N,Net-(U1-IO25)*%
X138000000Y-103500000D03*
X135000000Y-88000000D03*
%TD*%
D16*
%TO.N,Net-(M2--)*%
X129500000Y-107500000D02*
X134000000Y-107500000D01*
X134000000Y-107500000D02*
X136000000Y-105500000D01*
%TO.N,/gnd*%
X143500000Y-103000000D02*
X143500000Y-101500000D01*
X138000000Y-105000000D02*
X139500000Y-103500000D01*
X144000000Y-103500000D02*
X143500000Y-103000000D01*
X139500000Y-103500000D02*
X144000000Y-103500000D01*
%TO.N,Net-(U1-IO25)*%
X138000000Y-103500000D02*
X138000000Y-98500000D01*
X138000000Y-98500000D02*
X138000000Y-91000000D01*
X138000000Y-91000000D02*
X135000000Y-88000000D01*
%TD*%
M02*
